<mxfile host="Electron" modified="2023-12-19T15:18:41.095Z" agent="Mozilla/5.0 (Windows NT 10.0; Win64; x64) AppleWebKit/537.36 (KHTML, like Gecko) draw.io/22.1.2 Chrome/114.0.5735.289 Electron/25.9.4 Safari/537.36" etag="UPcYfMBrNIYEQsyv42eF" version="22.1.2" type="device" pages="2">
  <diagram name="diagram wo res" id="w9ihNUBb9Rjg-Ea71THt">
    <mxGraphModel dx="1416" dy="818" grid="1" gridSize="10" guides="1" tooltips="1" connect="1" arrows="1" fold="1" page="0" pageScale="1" pageWidth="827" pageHeight="1169" math="0" shadow="0">
      <root>
        <mxCell id="0" />
        <mxCell id="1" parent="0" />
        <mxCell id="57" value="GOMOKU" style="text;html=1;align=center;verticalAlign=middle;resizable=0;points=[];autosize=1;strokeColor=none;fillColor=none;fontSize=35;" parent="1" vertex="1">
          <mxGeometry x="390" y="150" width="180" height="60" as="geometry" />
        </mxCell>
        <mxCell id="2Wch5md70ntPF7iY55qb-350" value="" style="group" vertex="1" connectable="0" parent="1">
          <mxGeometry x="130" y="250" width="770" height="480" as="geometry" />
        </mxCell>
        <mxCell id="339" value="player_black" style="shape=rhombus;perimeter=rhombusPerimeter;whiteSpace=wrap;html=1;align=center;" parent="2Wch5md70ntPF7iY55qb-350" vertex="1">
          <mxGeometry x="300" y="160" width="80" height="40" as="geometry" />
        </mxCell>
        <mxCell id="yqkwtP5y6iGvj30xNfCS-2" value="Users" style="whiteSpace=wrap;html=1;align=center;container=0;" parent="2Wch5md70ntPF7iY55qb-350" vertex="1">
          <mxGeometry x="100" y="220" width="100" height="40" as="geometry" />
        </mxCell>
        <mxCell id="yqkwtP5y6iGvj30xNfCS-3" value="username" style="ellipse;whiteSpace=wrap;html=1;align=center;container=0;" parent="2Wch5md70ntPF7iY55qb-350" vertex="1">
          <mxGeometry y="180" width="100" height="40" as="geometry" />
        </mxCell>
        <mxCell id="yqkwtP5y6iGvj30xNfCS-4" value="id" style="ellipse;whiteSpace=wrap;html=1;align=center;fontStyle=4;container=0;" parent="2Wch5md70ntPF7iY55qb-350" vertex="1">
          <mxGeometry x="200" y="260" width="100" height="40" as="geometry" />
        </mxCell>
        <mxCell id="yqkwtP5y6iGvj30xNfCS-15" value="" style="endArrow=none;html=1;rounded=0;" parent="2Wch5md70ntPF7iY55qb-350" source="yqkwtP5y6iGvj30xNfCS-4" target="yqkwtP5y6iGvj30xNfCS-2" edge="1">
          <mxGeometry relative="1" as="geometry">
            <mxPoint x="-81" y="440" as="sourcePoint" />
            <mxPoint x="79" y="440" as="targetPoint" />
          </mxGeometry>
        </mxCell>
        <mxCell id="yqkwtP5y6iGvj30xNfCS-16" value="" style="endArrow=none;html=1;rounded=0;" parent="2Wch5md70ntPF7iY55qb-350" source="yqkwtP5y6iGvj30xNfCS-3" target="yqkwtP5y6iGvj30xNfCS-2" edge="1">
          <mxGeometry relative="1" as="geometry">
            <mxPoint x="-81" y="440" as="sourcePoint" />
            <mxPoint x="79" y="440" as="targetPoint" />
          </mxGeometry>
        </mxCell>
        <mxCell id="yqkwtP5y6iGvj30xNfCS-19" value="elo" style="ellipse;whiteSpace=wrap;html=1;align=center;container=0;" parent="2Wch5md70ntPF7iY55qb-350" vertex="1">
          <mxGeometry y="416" width="100" height="40" as="geometry" />
        </mxCell>
        <mxCell id="yqkwtP5y6iGvj30xNfCS-31" value="password_validation" style="ellipse;whiteSpace=wrap;html=1;align=center;container=0;" parent="2Wch5md70ntPF7iY55qb-350" vertex="1">
          <mxGeometry y="260" width="120" height="40" as="geometry" />
        </mxCell>
        <mxCell id="4" value="match_outcome" style="ellipse;whiteSpace=wrap;html=1;align=center;container=0;" parent="2Wch5md70ntPF7iY55qb-350" vertex="1">
          <mxGeometry x="390" y="20" width="100" height="40" as="geometry" />
        </mxCell>
        <mxCell id="5" value="" style="endArrow=none;html=1;rounded=0;" parent="2Wch5md70ntPF7iY55qb-350" source="287" target="4" edge="1">
          <mxGeometry relative="1" as="geometry">
            <mxPoint x="480" y="60" as="sourcePoint" />
            <mxPoint x="637.5" y="395" as="targetPoint" />
          </mxGeometry>
        </mxCell>
        <mxCell id="19" value="created_at" style="ellipse;whiteSpace=wrap;html=1;align=center;container=0;" parent="2Wch5md70ntPF7iY55qb-350" vertex="1">
          <mxGeometry x="200" y="20" width="100" height="40" as="geometry" />
        </mxCell>
        <mxCell id="20" value="last_used" style="ellipse;whiteSpace=wrap;html=1;align=center;container=0;" parent="2Wch5md70ntPF7iY55qb-350" vertex="1">
          <mxGeometry y="20" width="100" height="40" as="geometry" />
        </mxCell>
        <mxCell id="21" value="" style="endArrow=none;html=1;rounded=0;" parent="2Wch5md70ntPF7iY55qb-350" source="39" target="20" edge="1">
          <mxGeometry relative="1" as="geometry">
            <mxPoint x="-181.00000000000023" y="359.9999999999998" as="sourcePoint" />
            <mxPoint x="-1" y="290" as="targetPoint" />
          </mxGeometry>
        </mxCell>
        <mxCell id="22" value="" style="endArrow=none;html=1;rounded=0;" parent="2Wch5md70ntPF7iY55qb-350" source="39" target="19" edge="1">
          <mxGeometry relative="1" as="geometry">
            <mxPoint x="-211.0460686347576" y="359.9999999999998" as="sourcePoint" />
            <mxPoint x="-1" y="290" as="targetPoint" />
          </mxGeometry>
        </mxCell>
        <mxCell id="38" value="has" style="shape=rhombus;double=1;perimeter=rhombusPerimeter;whiteSpace=wrap;html=1;align=center;container=0;" parent="2Wch5md70ntPF7iY55qb-350" vertex="1">
          <mxGeometry x="105" y="140" width="90" height="40" as="geometry" />
        </mxCell>
        <mxCell id="39" value="Tokens" style="shape=ext;margin=3;double=1;whiteSpace=wrap;html=1;align=center;container=0;" parent="2Wch5md70ntPF7iY55qb-350" vertex="1">
          <mxGeometry x="100" y="60" width="100" height="40" as="geometry" />
        </mxCell>
        <mxCell id="44" value="" style="endArrow=none;html=1;rounded=0;" parent="2Wch5md70ntPF7iY55qb-350" source="38" target="yqkwtP5y6iGvj30xNfCS-2" edge="1">
          <mxGeometry relative="1" as="geometry">
            <mxPoint x="-261" y="310" as="sourcePoint" />
            <mxPoint x="-101" y="310" as="targetPoint" />
          </mxGeometry>
        </mxCell>
        <mxCell id="45" value="1" style="resizable=0;html=1;align=right;verticalAlign=bottom;container=0;" parent="44" connectable="0" vertex="1">
          <mxGeometry relative="1" as="geometry">
            <mxPoint as="offset" />
          </mxGeometry>
        </mxCell>
        <mxCell id="77" value="" style="endArrow=none;html=1;rounded=0;" parent="2Wch5md70ntPF7iY55qb-350" source="yqkwtP5y6iGvj30xNfCS-19" target="178" edge="1">
          <mxGeometry width="50" height="50" relative="1" as="geometry">
            <mxPoint x="-30" y="470" as="sourcePoint" />
            <mxPoint x="20" y="420" as="targetPoint" />
          </mxGeometry>
        </mxCell>
        <mxCell id="123" value="" style="shape=link;html=1;rounded=0;" parent="2Wch5md70ntPF7iY55qb-350" source="38" target="39" edge="1">
          <mxGeometry relative="1" as="geometry">
            <mxPoint x="-10" y="280" as="sourcePoint" />
            <mxPoint x="150" y="280" as="targetPoint" />
          </mxGeometry>
        </mxCell>
        <mxCell id="124" value="N" style="resizable=0;html=1;align=right;verticalAlign=bottom;container=0;" parent="123" connectable="0" vertex="1">
          <mxGeometry relative="1" as="geometry">
            <mxPoint as="offset" />
          </mxGeometry>
        </mxCell>
        <mxCell id="130" value="Rules" style="whiteSpace=wrap;html=1;align=center;container=0;" parent="2Wch5md70ntPF7iY55qb-350" vertex="1">
          <mxGeometry x="480" y="381" width="100" height="40" as="geometry" />
        </mxCell>
        <mxCell id="161" value="board_size" style="ellipse;whiteSpace=wrap;html=1;align=center;container=0;" parent="2Wch5md70ntPF7iY55qb-350" vertex="1">
          <mxGeometry x="380" y="420" width="100" height="40" as="geometry" />
        </mxCell>
        <mxCell id="116" value="" style="endArrow=none;html=1;rounded=0;" parent="2Wch5md70ntPF7iY55qb-350" source="130" target="161" edge="1">
          <mxGeometry relative="1" as="geometry">
            <mxPoint x="757.4999999999998" y="254.92444566718768" as="sourcePoint" />
            <mxPoint x="869.9999999999998" y="204.9999999999999" as="targetPoint" />
          </mxGeometry>
        </mxCell>
        <mxCell id="162" value="opening_rules" style="ellipse;whiteSpace=wrap;html=1;align=center;container=0;" parent="2Wch5md70ntPF7iY55qb-350" vertex="1">
          <mxGeometry x="580" y="420" width="100" height="40" as="geometry" />
        </mxCell>
        <mxCell id="108" value="" style="endArrow=none;html=1;rounded=0;" parent="2Wch5md70ntPF7iY55qb-350" source="130" target="162" edge="1">
          <mxGeometry relative="1" as="geometry">
            <mxPoint x="807.4999999999998" y="255.0000000000001" as="sourcePoint" />
            <mxPoint x="869.9999999999998" y="284.9999999999999" as="targetPoint" />
          </mxGeometry>
        </mxCell>
        <mxCell id="163" value="variant" style="ellipse;whiteSpace=wrap;html=1;align=center;container=0;" parent="2Wch5md70ntPF7iY55qb-350" vertex="1">
          <mxGeometry x="380" y="340" width="100" height="40" as="geometry" />
        </mxCell>
        <mxCell id="119" value="" style="endArrow=none;html=1;rounded=0;" parent="2Wch5md70ntPF7iY55qb-350" source="130" target="163" edge="1">
          <mxGeometry relative="1" as="geometry">
            <mxPoint x="857.4999999999998" y="255.0000000000001" as="sourcePoint" />
            <mxPoint x="939.9999999999998" y="244.9999999999999" as="targetPoint" />
          </mxGeometry>
        </mxCell>
        <mxCell id="177" value="&lt;span style=&quot;border-bottom: 1px dotted&quot;&gt;token_validation&lt;/span&gt;" style="ellipse;whiteSpace=wrap;html=1;align=center;container=0;" parent="2Wch5md70ntPF7iY55qb-350" vertex="1">
          <mxGeometry x="100" width="100" height="40" as="geometry" />
        </mxCell>
        <mxCell id="yqkwtP5y6iGvj30xNfCS-44" value="" style="endArrow=none;html=1;rounded=0;" parent="2Wch5md70ntPF7iY55qb-350" source="39" target="177" edge="1">
          <mxGeometry relative="1" as="geometry">
            <mxPoint x="-231.00000000000023" y="339.9999999999998" as="sourcePoint" />
            <mxPoint x="-249.99999999999818" y="399.9999999999999" as="targetPoint" />
          </mxGeometry>
        </mxCell>
        <mxCell id="178" value="User Stats" style="shape=ext;margin=3;double=1;whiteSpace=wrap;html=1;align=center;container=0;" parent="2Wch5md70ntPF7iY55qb-350" vertex="1">
          <mxGeometry x="100" y="376" width="100" height="40" as="geometry" />
        </mxCell>
        <mxCell id="184" value="has" style="shape=rhombus;double=1;perimeter=rhombusPerimeter;whiteSpace=wrap;html=1;align=center;container=0;" parent="2Wch5md70ntPF7iY55qb-350" vertex="1">
          <mxGeometry x="300" y="376" width="80" height="40" as="geometry" />
        </mxCell>
        <mxCell id="186" value="has" style="shape=rhombus;double=1;perimeter=rhombusPerimeter;whiteSpace=wrap;html=1;align=center;container=0;" parent="2Wch5md70ntPF7iY55qb-350" vertex="1">
          <mxGeometry x="110" y="300" width="80" height="40" as="geometry" />
        </mxCell>
        <mxCell id="187" value="" style="endArrow=none;html=1;rounded=0;" parent="2Wch5md70ntPF7iY55qb-350" source="186" target="yqkwtP5y6iGvj30xNfCS-2" edge="1">
          <mxGeometry relative="1" as="geometry">
            <mxPoint x="150" y="195" as="sourcePoint" />
            <mxPoint x="310" y="195" as="targetPoint" />
          </mxGeometry>
        </mxCell>
        <mxCell id="188" value="1" style="resizable=0;html=1;align=right;verticalAlign=bottom;container=0;" parent="187" connectable="0" vertex="1">
          <mxGeometry relative="1" as="geometry">
            <mxPoint x="10" as="offset" />
          </mxGeometry>
        </mxCell>
        <mxCell id="189" value="" style="shape=link;html=1;rounded=0;" parent="2Wch5md70ntPF7iY55qb-350" source="186" target="178" edge="1">
          <mxGeometry relative="1" as="geometry">
            <mxPoint x="150" y="195" as="sourcePoint" />
            <mxPoint x="310" y="195" as="targetPoint" />
          </mxGeometry>
        </mxCell>
        <mxCell id="190" value="N" style="resizable=0;html=1;align=right;verticalAlign=bottom;container=0;" parent="189" connectable="0" vertex="1">
          <mxGeometry relative="1" as="geometry">
            <mxPoint y="20" as="offset" />
          </mxGeometry>
        </mxCell>
        <mxCell id="194" value="" style="endArrow=none;html=1;rounded=0;" parent="2Wch5md70ntPF7iY55qb-350" source="288" target="130" edge="1">
          <mxGeometry relative="1" as="geometry">
            <mxPoint x="686.1788617886182" y="253.08943089430886" as="sourcePoint" />
            <mxPoint x="350" y="175" as="targetPoint" />
          </mxGeometry>
        </mxCell>
        <mxCell id="195" value="1" style="resizable=0;html=1;align=right;verticalAlign=bottom;container=0;" parent="194" connectable="0" vertex="1">
          <mxGeometry relative="1" as="geometry">
            <mxPoint x="-64" y="64" as="offset" />
          </mxGeometry>
        </mxCell>
        <mxCell id="127" value="" style="endArrow=none;html=1;rounded=0;" parent="2Wch5md70ntPF7iY55qb-350" source="184" target="130" edge="1">
          <mxGeometry relative="1" as="geometry">
            <mxPoint x="450" y="401" as="sourcePoint" />
            <mxPoint x="587.4999999999998" y="345.0000000000001" as="targetPoint" />
          </mxGeometry>
        </mxCell>
        <mxCell id="128" value="1" style="resizable=0;html=1;align=right;verticalAlign=bottom;container=0;" parent="127" connectable="0" vertex="1">
          <mxGeometry relative="1" as="geometry">
            <mxPoint x="45" as="offset" />
          </mxGeometry>
        </mxCell>
        <mxCell id="207" value="" style="shape=link;html=1;rounded=0;" parent="2Wch5md70ntPF7iY55qb-350" source="184" target="178" edge="1">
          <mxGeometry relative="1" as="geometry">
            <mxPoint x="310" y="410" as="sourcePoint" />
            <mxPoint x="170" y="545" as="targetPoint" />
          </mxGeometry>
        </mxCell>
        <mxCell id="208" value="N" style="resizable=0;html=1;align=right;verticalAlign=bottom;container=0;" parent="207" connectable="0" vertex="1">
          <mxGeometry relative="1" as="geometry">
            <mxPoint x="-40" as="offset" />
          </mxGeometry>
        </mxCell>
        <mxCell id="209" value="id" style="ellipse;whiteSpace=wrap;html=1;align=center;fontStyle=4;container=0;" parent="2Wch5md70ntPF7iY55qb-350" vertex="1">
          <mxGeometry x="480" y="440" width="100" height="40" as="geometry" />
        </mxCell>
        <mxCell id="210" value="" style="endArrow=none;html=1;rounded=0;" parent="2Wch5md70ntPF7iY55qb-350" source="130" target="209" edge="1">
          <mxGeometry relative="1" as="geometry">
            <mxPoint x="160" y="165" as="sourcePoint" />
            <mxPoint x="320" y="165" as="targetPoint" />
          </mxGeometry>
        </mxCell>
        <mxCell id="242" value="match_state" style="ellipse;whiteSpace=wrap;html=1;align=center;container=0;" parent="2Wch5md70ntPF7iY55qb-350" vertex="1">
          <mxGeometry x="570" y="20" width="100" height="40" as="geometry" />
        </mxCell>
        <mxCell id="243" value="" style="endArrow=none;html=1;rounded=0;" parent="2Wch5md70ntPF7iY55qb-350" source="287" target="242" edge="1">
          <mxGeometry relative="1" as="geometry">
            <mxPoint x="580" y="80" as="sourcePoint" />
            <mxPoint x="360" y="135" as="targetPoint" />
          </mxGeometry>
        </mxCell>
        <mxCell id="244" value="" style="endArrow=none;html=1;rounded=0;" parent="2Wch5md70ntPF7iY55qb-350" source="yqkwtP5y6iGvj30xNfCS-2" target="yqkwtP5y6iGvj30xNfCS-31" edge="1">
          <mxGeometry relative="1" as="geometry">
            <mxPoint x="-30" y="100" as="sourcePoint" />
            <mxPoint x="130" y="100" as="targetPoint" />
          </mxGeometry>
        </mxCell>
        <mxCell id="9" value="games_played" style="ellipse;whiteSpace=wrap;html=1;align=center;container=0;" parent="2Wch5md70ntPF7iY55qb-350" vertex="1">
          <mxGeometry y="340" width="100" height="40" as="geometry" />
        </mxCell>
        <mxCell id="76" value="" style="endArrow=none;html=1;rounded=0;" parent="2Wch5md70ntPF7iY55qb-350" source="178" target="9" edge="1">
          <mxGeometry width="50" height="50" relative="1" as="geometry">
            <mxPoint x="-30" y="470" as="sourcePoint" />
            <mxPoint x="20" y="420" as="targetPoint" />
          </mxGeometry>
        </mxCell>
        <mxCell id="287" value="Matches" style="whiteSpace=wrap;html=1;align=center;container=0;" parent="2Wch5md70ntPF7iY55qb-350" vertex="1">
          <mxGeometry x="480" y="60" width="100" height="40" as="geometry" />
        </mxCell>
        <mxCell id="288" value="has" style="shape=rhombus;perimeter=rhombusPerimeter;whiteSpace=wrap;html=1;align=center;container=0;" parent="2Wch5md70ntPF7iY55qb-350" vertex="1">
          <mxGeometry x="690" y="220" width="80" height="40" as="geometry" />
        </mxCell>
        <mxCell id="297" value="Lobby" style="whiteSpace=wrap;html=1;align=center;container=0;" parent="2Wch5md70ntPF7iY55qb-350" vertex="1">
          <mxGeometry x="480" y="220" width="100" height="40" as="geometry" />
        </mxCell>
        <mxCell id="298" value="id" style="ellipse;whiteSpace=wrap;html=1;align=center;fontStyle=4;container=0;" parent="2Wch5md70ntPF7iY55qb-350" vertex="1">
          <mxGeometry x="400" y="180" width="100" height="40" as="geometry" />
        </mxCell>
        <mxCell id="299" value="" style="endArrow=none;html=1;rounded=0;" parent="2Wch5md70ntPF7iY55qb-350" source="297" target="298" edge="1">
          <mxGeometry width="50" height="50" relative="1" as="geometry">
            <mxPoint x="140" y="240" as="sourcePoint" />
            <mxPoint x="190" y="190" as="targetPoint" />
          </mxGeometry>
        </mxCell>
        <mxCell id="300" value="created_at" style="ellipse;whiteSpace=wrap;html=1;align=center;container=0;" parent="2Wch5md70ntPF7iY55qb-350" vertex="1">
          <mxGeometry x="400" y="260" width="100" height="40" as="geometry" />
        </mxCell>
        <mxCell id="301" value="" style="endArrow=none;html=1;rounded=0;" parent="2Wch5md70ntPF7iY55qb-350" source="300" target="297" edge="1">
          <mxGeometry width="50" height="50" relative="1" as="geometry">
            <mxPoint x="140" y="240" as="sourcePoint" />
            <mxPoint x="190" y="190" as="targetPoint" />
          </mxGeometry>
        </mxCell>
        <mxCell id="303" value="belongs" style="shape=rhombus;perimeter=rhombusPerimeter;whiteSpace=wrap;html=1;align=center;container=0;" parent="2Wch5md70ntPF7iY55qb-350" vertex="1">
          <mxGeometry x="300" y="220" width="80" height="40" as="geometry" />
        </mxCell>
        <mxCell id="306" value="has" style="shape=rhombus;perimeter=rhombusPerimeter;whiteSpace=wrap;html=1;align=center;container=0;" parent="2Wch5md70ntPF7iY55qb-350" vertex="1">
          <mxGeometry x="490" y="300" width="80" height="40" as="geometry" />
        </mxCell>
        <mxCell id="309" value="creates" style="shape=rhombus;perimeter=rhombusPerimeter;whiteSpace=wrap;html=1;align=center;container=0;" parent="2Wch5md70ntPF7iY55qb-350" vertex="1">
          <mxGeometry x="490" y="140" width="80" height="40" as="geometry" />
        </mxCell>
        <mxCell id="314" value="" style="shape=link;html=1;rounded=0;" parent="2Wch5md70ntPF7iY55qb-350" source="288" target="287" edge="1">
          <mxGeometry relative="1" as="geometry">
            <mxPoint x="686.1224489795918" y="226.9387755102041" as="sourcePoint" />
            <mxPoint x="320" y="220" as="targetPoint" />
          </mxGeometry>
        </mxCell>
        <mxCell id="315" value="N" style="resizable=0;html=1;align=right;verticalAlign=bottom;container=0;" parent="314" connectable="0" vertex="1">
          <mxGeometry x="1" relative="1" as="geometry">
            <mxPoint x="27" y="20" as="offset" />
          </mxGeometry>
        </mxCell>
        <mxCell id="316" value="" style="shape=link;html=1;rounded=0;" parent="2Wch5md70ntPF7iY55qb-350" source="303" target="yqkwtP5y6iGvj30xNfCS-2" edge="1">
          <mxGeometry relative="1" as="geometry">
            <mxPoint x="120" y="220" as="sourcePoint" />
            <mxPoint x="270" y="180" as="targetPoint" />
          </mxGeometry>
        </mxCell>
        <mxCell id="317" value="N" style="resizable=0;html=1;align=right;verticalAlign=bottom;container=0;" parent="316" connectable="0" vertex="1">
          <mxGeometry x="1" relative="1" as="geometry">
            <mxPoint x="10" as="offset" />
          </mxGeometry>
        </mxCell>
        <mxCell id="318" value="" style="endArrow=none;html=1;rounded=0;" parent="2Wch5md70ntPF7iY55qb-350" source="303" target="297" edge="1">
          <mxGeometry relative="1" as="geometry">
            <mxPoint x="460" y="240" as="sourcePoint" />
            <mxPoint x="380" y="220" as="targetPoint" />
          </mxGeometry>
        </mxCell>
        <mxCell id="319" value="1" style="resizable=0;html=1;align=right;verticalAlign=bottom;container=0;" parent="318" connectable="0" vertex="1">
          <mxGeometry x="1" relative="1" as="geometry" />
        </mxCell>
        <mxCell id="320" value="" style="endArrow=none;html=1;rounded=0;" parent="2Wch5md70ntPF7iY55qb-350" source="306" target="297" edge="1">
          <mxGeometry relative="1" as="geometry">
            <mxPoint x="160" y="220" as="sourcePoint" />
            <mxPoint x="320" y="220" as="targetPoint" />
          </mxGeometry>
        </mxCell>
        <mxCell id="321" value="1" style="resizable=0;html=1;align=right;verticalAlign=bottom;container=0;" parent="320" connectable="0" vertex="1">
          <mxGeometry x="1" relative="1" as="geometry">
            <mxPoint y="15" as="offset" />
          </mxGeometry>
        </mxCell>
        <mxCell id="322" value="" style="endArrow=none;html=1;rounded=0;" parent="2Wch5md70ntPF7iY55qb-350" source="306" target="130" edge="1">
          <mxGeometry relative="1" as="geometry">
            <mxPoint x="160" y="220" as="sourcePoint" />
            <mxPoint x="320" y="220" as="targetPoint" />
          </mxGeometry>
        </mxCell>
        <mxCell id="323" value="1" style="resizable=0;html=1;align=right;verticalAlign=bottom;container=0;" parent="322" connectable="0" vertex="1">
          <mxGeometry x="1" relative="1" as="geometry" />
        </mxCell>
        <mxCell id="324" value="" style="endArrow=none;html=1;rounded=0;" parent="2Wch5md70ntPF7iY55qb-350" source="309" target="297" edge="1">
          <mxGeometry relative="1" as="geometry">
            <mxPoint x="160" y="220" as="sourcePoint" />
            <mxPoint x="320" y="220" as="targetPoint" />
          </mxGeometry>
        </mxCell>
        <mxCell id="325" value="1" style="resizable=0;html=1;align=right;verticalAlign=bottom;container=0;" parent="324" connectable="0" vertex="1">
          <mxGeometry x="1" relative="1" as="geometry" />
        </mxCell>
        <mxCell id="326" value="" style="shape=link;html=1;rounded=0;" parent="2Wch5md70ntPF7iY55qb-350" source="309" target="287" edge="1">
          <mxGeometry relative="1" as="geometry">
            <mxPoint x="160" y="220" as="sourcePoint" />
            <mxPoint x="320" y="220" as="targetPoint" />
          </mxGeometry>
        </mxCell>
        <mxCell id="327" value="N" style="resizable=0;html=1;align=right;verticalAlign=bottom;container=0;" parent="326" connectable="0" vertex="1">
          <mxGeometry x="1" relative="1" as="geometry">
            <mxPoint y="20" as="offset" />
          </mxGeometry>
        </mxCell>
        <mxCell id="329" value="moves" style="ellipse;whiteSpace=wrap;html=1;align=center;container=0;" parent="2Wch5md70ntPF7iY55qb-350" vertex="1">
          <mxGeometry x="590" y="60" width="100" height="40" as="geometry" />
        </mxCell>
        <mxCell id="330" value="id" style="ellipse;whiteSpace=wrap;html=1;align=center;fontStyle=4;container=0;" parent="2Wch5md70ntPF7iY55qb-350" vertex="1">
          <mxGeometry x="480" width="100" height="40" as="geometry" />
        </mxCell>
        <mxCell id="331" value="player_white" style="shape=rhombus;perimeter=rhombusPerimeter;whiteSpace=wrap;html=1;align=center;container=0;" parent="2Wch5md70ntPF7iY55qb-350" vertex="1">
          <mxGeometry x="300" y="90" width="80" height="40" as="geometry" />
        </mxCell>
        <mxCell id="yqkwtP5y6iGvj30xNfCS-12" value="" style="endArrow=none;html=1;rounded=0;" parent="2Wch5md70ntPF7iY55qb-350" source="330" target="287" edge="1">
          <mxGeometry relative="1" as="geometry">
            <mxPoint x="530" y="30" as="sourcePoint" />
            <mxPoint x="530" y="60" as="targetPoint" />
          </mxGeometry>
        </mxCell>
        <mxCell id="334" value="" style="endArrow=none;html=1;rounded=0;" parent="2Wch5md70ntPF7iY55qb-350" source="329" target="287" edge="1">
          <mxGeometry relative="1" as="geometry">
            <mxPoint x="459.99999999999477" y="80" as="sourcePoint" />
            <mxPoint x="370" y="200" as="targetPoint" />
          </mxGeometry>
        </mxCell>
        <mxCell id="335" value="" style="endArrow=none;html=1;rounded=0;" parent="2Wch5md70ntPF7iY55qb-350" source="331" target="287" edge="1">
          <mxGeometry relative="1" as="geometry">
            <mxPoint x="170" y="250" as="sourcePoint" />
            <mxPoint x="330" y="250" as="targetPoint" />
          </mxGeometry>
        </mxCell>
        <mxCell id="336" value="1" style="resizable=0;html=1;align=right;verticalAlign=bottom;container=0;" parent="335" connectable="0" vertex="1">
          <mxGeometry x="1" relative="1" as="geometry">
            <mxPoint x="-7" y="5" as="offset" />
          </mxGeometry>
        </mxCell>
        <mxCell id="340" value="" style="endArrow=none;html=1;rounded=0;" parent="2Wch5md70ntPF7iY55qb-350" source="339" target="287" edge="1">
          <mxGeometry relative="1" as="geometry">
            <mxPoint x="440.6060606060605" y="150.30303030303014" as="sourcePoint" />
            <mxPoint x="790" y="240" as="targetPoint" />
          </mxGeometry>
        </mxCell>
        <mxCell id="341" value="1" style="resizable=0;html=1;align=right;verticalAlign=bottom;" parent="340" connectable="0" vertex="1">
          <mxGeometry x="1" relative="1" as="geometry" />
        </mxCell>
        <mxCell id="342" value="" style="endArrow=none;html=1;rounded=0;" parent="2Wch5md70ntPF7iY55qb-350" source="339" target="yqkwtP5y6iGvj30xNfCS-2" edge="1">
          <mxGeometry relative="1" as="geometry">
            <mxPoint x="530" y="240" as="sourcePoint" />
            <mxPoint x="690" y="240" as="targetPoint" />
          </mxGeometry>
        </mxCell>
        <mxCell id="343" value="1" style="resizable=0;html=1;align=right;verticalAlign=bottom;" parent="342" connectable="0" vertex="1">
          <mxGeometry x="1" relative="1" as="geometry" />
        </mxCell>
        <mxCell id="344" value="" style="endArrow=none;html=1;rounded=0;" parent="2Wch5md70ntPF7iY55qb-350" source="331" target="yqkwtP5y6iGvj30xNfCS-2" edge="1">
          <mxGeometry relative="1" as="geometry">
            <mxPoint x="500" y="240" as="sourcePoint" />
            <mxPoint x="660" y="240" as="targetPoint" />
          </mxGeometry>
        </mxCell>
        <mxCell id="345" value="1" style="resizable=0;html=1;align=right;verticalAlign=bottom;" parent="344" connectable="0" vertex="1">
          <mxGeometry x="1" relative="1" as="geometry" />
        </mxCell>
        <mxCell id="347" value="started" style="ellipse;whiteSpace=wrap;html=1;align=center;" parent="2Wch5md70ntPF7iY55qb-350" vertex="1">
          <mxGeometry x="560" y="180" width="100" height="40" as="geometry" />
        </mxCell>
        <mxCell id="348" value="" style="endArrow=none;html=1;rounded=0;" parent="2Wch5md70ntPF7iY55qb-350" source="297" target="347" edge="1">
          <mxGeometry relative="1" as="geometry">
            <mxPoint x="440" y="240" as="sourcePoint" />
            <mxPoint x="600" y="240" as="targetPoint" />
          </mxGeometry>
        </mxCell>
        <mxCell id="349" value="game_id" style="ellipse;whiteSpace=wrap;html=1;align=center;" parent="2Wch5md70ntPF7iY55qb-350" vertex="1">
          <mxGeometry x="570" y="260" width="100" height="40" as="geometry" />
        </mxCell>
        <mxCell id="350" value="" style="endArrow=none;html=1;rounded=0;" parent="2Wch5md70ntPF7iY55qb-350" source="297" target="349" edge="1">
          <mxGeometry relative="1" as="geometry">
            <mxPoint x="440" y="240" as="sourcePoint" />
            <mxPoint x="600" y="240" as="targetPoint" />
          </mxGeometry>
        </mxCell>
      </root>
    </mxGraphModel>
  </diagram>
  <diagram id="ZkWVsivCgGSlaRpEIkhv" name="diagram">
    <mxGraphModel dx="1416" dy="818" grid="1" gridSize="10" guides="1" tooltips="1" connect="1" arrows="1" fold="1" page="0" pageScale="1" pageWidth="827" pageHeight="1169" math="0" shadow="0">
      <root>
        <mxCell id="0" />
        <mxCell id="1" parent="0" />
        <mxCell id="fQonCBYiOLAtVd0LjZu8-1" value="Restrictions" style="swimlane;fontStyle=0;childLayout=stackLayout;horizontal=1;startSize=26;horizontalStack=0;resizeParent=1;resizeParentMax=0;resizeLast=0;collapsible=1;marginBottom=0;align=center;fontSize=14;" parent="1" vertex="1">
          <mxGeometry x="720" y="394" width="320" height="176" as="geometry" />
        </mxCell>
        <mxCell id="fQonCBYiOLAtVd0LjZu8-2" value="R1: Must be unique" style="text;strokeColor=none;fillColor=none;spacingLeft=4;spacingRight=4;overflow=hidden;rotatable=0;points=[[0,0.5],[1,0.5]];portConstraint=eastwest;fontSize=12;" parent="fQonCBYiOLAtVd0LjZu8-1" vertex="1">
          <mxGeometry y="26" width="320" height="30" as="geometry" />
        </mxCell>
        <mxCell id="fQonCBYiOLAtVd0LjZu8-3" value="R2 : create_date must be older than last used" style="text;strokeColor=none;fillColor=none;spacingLeft=4;spacingRight=4;overflow=hidden;rotatable=0;points=[[0,0.5],[1,0.5]];portConstraint=eastwest;fontSize=12;" parent="fQonCBYiOLAtVd0LjZu8-1" vertex="1">
          <mxGeometry y="56" width="320" height="30" as="geometry" />
        </mxCell>
        <mxCell id="fQonCBYiOLAtVd0LjZu8-4" value="R3: It can only be: black_won, white_won, draw or none if the match its not yet finished" style="text;strokeColor=none;fillColor=none;spacingLeft=4;spacingRight=4;overflow=hidden;rotatable=0;points=[[0,0.5],[1,0.5]];portConstraint=eastwest;fontSize=12;whiteSpace=wrap;" parent="fQonCBYiOLAtVd0LjZu8-1" vertex="1">
          <mxGeometry y="86" width="320" height="30" as="geometry" />
        </mxCell>
        <mxCell id="fQonCBYiOLAtVd0LjZu8-5" value="R4: It can only be: ongoing, finished" style="text;strokeColor=none;fillColor=none;spacingLeft=4;spacingRight=4;overflow=hidden;rotatable=0;points=[[0,0.5],[1,0.5]];portConstraint=eastwest;fontSize=12;" parent="fQonCBYiOLAtVd0LjZu8-1" vertex="1">
          <mxGeometry y="116" width="320" height="30" as="geometry" />
        </mxCell>
        <mxCell id="fQonCBYiOLAtVd0LjZu8-6" value="R5: Board size its only 15 or 19" style="text;strokeColor=none;fillColor=none;spacingLeft=4;spacingRight=4;overflow=hidden;rotatable=0;points=[[0,0.5],[1,0.5]];portConstraint=eastwest;fontSize=12;" parent="fQonCBYiOLAtVd0LjZu8-1" vertex="1">
          <mxGeometry y="146" width="320" height="30" as="geometry" />
        </mxCell>
        <mxCell id="_GkZHtUso-1NL_-Ys8Fe-1" value="GOMOKU" style="text;html=1;align=center;verticalAlign=middle;resizable=0;points=[];autosize=1;strokeColor=none;fillColor=none;fontSize=35;" parent="1" vertex="1">
          <mxGeometry x="430" width="180" height="60" as="geometry" />
        </mxCell>
        <mxCell id="_GkZHtUso-1NL_-Ys8Fe-2" value="" style="group" parent="1" vertex="1" connectable="0">
          <mxGeometry y="90" width="700" height="480" as="geometry" />
        </mxCell>
        <mxCell id="_GkZHtUso-1NL_-Ys8Fe-3" value="Users" style="whiteSpace=wrap;html=1;align=center;container=0;" parent="_GkZHtUso-1NL_-Ys8Fe-2" vertex="1">
          <mxGeometry x="100" y="220" width="100" height="40" as="geometry" />
        </mxCell>
        <mxCell id="_GkZHtUso-1NL_-Ys8Fe-4" value="username" style="ellipse;whiteSpace=wrap;html=1;align=center;container=0;" parent="_GkZHtUso-1NL_-Ys8Fe-2" vertex="1">
          <mxGeometry y="180" width="100" height="40" as="geometry" />
        </mxCell>
        <mxCell id="_GkZHtUso-1NL_-Ys8Fe-5" value="id" style="ellipse;whiteSpace=wrap;html=1;align=center;fontStyle=4;container=0;" parent="_GkZHtUso-1NL_-Ys8Fe-2" vertex="1">
          <mxGeometry x="200" y="260" width="100" height="40" as="geometry" />
        </mxCell>
        <mxCell id="_GkZHtUso-1NL_-Ys8Fe-6" value="" style="endArrow=none;html=1;rounded=0;" parent="_GkZHtUso-1NL_-Ys8Fe-2" source="_GkZHtUso-1NL_-Ys8Fe-5" target="_GkZHtUso-1NL_-Ys8Fe-3" edge="1">
          <mxGeometry relative="1" as="geometry">
            <mxPoint x="-81" y="440" as="sourcePoint" />
            <mxPoint x="79" y="440" as="targetPoint" />
          </mxGeometry>
        </mxCell>
        <mxCell id="_GkZHtUso-1NL_-Ys8Fe-7" value="" style="endArrow=none;html=1;rounded=0;" parent="_GkZHtUso-1NL_-Ys8Fe-2" source="_GkZHtUso-1NL_-Ys8Fe-4" target="_GkZHtUso-1NL_-Ys8Fe-3" edge="1">
          <mxGeometry relative="1" as="geometry">
            <mxPoint x="-81" y="440" as="sourcePoint" />
            <mxPoint x="79" y="440" as="targetPoint" />
          </mxGeometry>
        </mxCell>
        <mxCell id="_GkZHtUso-1NL_-Ys8Fe-8" value="elo" style="ellipse;whiteSpace=wrap;html=1;align=center;container=0;" parent="_GkZHtUso-1NL_-Ys8Fe-2" vertex="1">
          <mxGeometry y="416" width="100" height="40" as="geometry" />
        </mxCell>
        <mxCell id="_GkZHtUso-1NL_-Ys8Fe-9" value="password_validation" style="ellipse;whiteSpace=wrap;html=1;align=center;container=0;" parent="_GkZHtUso-1NL_-Ys8Fe-2" vertex="1">
          <mxGeometry y="260" width="120" height="40" as="geometry" />
        </mxCell>
        <mxCell id="_GkZHtUso-1NL_-Ys8Fe-10" value="match_outcome" style="ellipse;whiteSpace=wrap;html=1;align=center;container=0;" parent="_GkZHtUso-1NL_-Ys8Fe-2" vertex="1">
          <mxGeometry x="340" y="20" width="100" height="40" as="geometry" />
        </mxCell>
        <mxCell id="_GkZHtUso-1NL_-Ys8Fe-11" value="" style="endArrow=none;html=1;rounded=0;" parent="_GkZHtUso-1NL_-Ys8Fe-2" source="_GkZHtUso-1NL_-Ys8Fe-60" target="_GkZHtUso-1NL_-Ys8Fe-10" edge="1">
          <mxGeometry relative="1" as="geometry">
            <mxPoint x="440" y="60" as="sourcePoint" />
            <mxPoint x="597.5" y="395" as="targetPoint" />
          </mxGeometry>
        </mxCell>
        <mxCell id="_GkZHtUso-1NL_-Ys8Fe-12" value="created_at" style="ellipse;whiteSpace=wrap;html=1;align=center;container=0;" parent="_GkZHtUso-1NL_-Ys8Fe-2" vertex="1">
          <mxGeometry x="200" y="20" width="100" height="40" as="geometry" />
        </mxCell>
        <mxCell id="_GkZHtUso-1NL_-Ys8Fe-13" value="last_used" style="ellipse;whiteSpace=wrap;html=1;align=center;container=0;" parent="_GkZHtUso-1NL_-Ys8Fe-2" vertex="1">
          <mxGeometry y="20" width="100" height="40" as="geometry" />
        </mxCell>
        <mxCell id="_GkZHtUso-1NL_-Ys8Fe-14" value="" style="endArrow=none;html=1;rounded=0;" parent="_GkZHtUso-1NL_-Ys8Fe-2" source="_GkZHtUso-1NL_-Ys8Fe-17" target="_GkZHtUso-1NL_-Ys8Fe-13" edge="1">
          <mxGeometry relative="1" as="geometry">
            <mxPoint x="-181.00000000000023" y="359.9999999999998" as="sourcePoint" />
            <mxPoint x="-1" y="290" as="targetPoint" />
          </mxGeometry>
        </mxCell>
        <mxCell id="_GkZHtUso-1NL_-Ys8Fe-15" value="" style="endArrow=none;html=1;rounded=0;" parent="_GkZHtUso-1NL_-Ys8Fe-2" source="_GkZHtUso-1NL_-Ys8Fe-17" target="_GkZHtUso-1NL_-Ys8Fe-12" edge="1">
          <mxGeometry relative="1" as="geometry">
            <mxPoint x="-211.0460686347576" y="359.9999999999998" as="sourcePoint" />
            <mxPoint x="-1" y="290" as="targetPoint" />
          </mxGeometry>
        </mxCell>
        <mxCell id="_GkZHtUso-1NL_-Ys8Fe-16" value="has" style="shape=rhombus;double=1;perimeter=rhombusPerimeter;whiteSpace=wrap;html=1;align=center;container=0;" parent="_GkZHtUso-1NL_-Ys8Fe-2" vertex="1">
          <mxGeometry x="105" y="140" width="90" height="40" as="geometry" />
        </mxCell>
        <mxCell id="_GkZHtUso-1NL_-Ys8Fe-17" value="Tokens" style="shape=ext;margin=3;double=1;whiteSpace=wrap;html=1;align=center;container=0;" parent="_GkZHtUso-1NL_-Ys8Fe-2" vertex="1">
          <mxGeometry x="100" y="60" width="100" height="40" as="geometry" />
        </mxCell>
        <mxCell id="_GkZHtUso-1NL_-Ys8Fe-18" value="" style="endArrow=none;html=1;rounded=0;" parent="_GkZHtUso-1NL_-Ys8Fe-2" source="_GkZHtUso-1NL_-Ys8Fe-16" target="_GkZHtUso-1NL_-Ys8Fe-3" edge="1">
          <mxGeometry relative="1" as="geometry">
            <mxPoint x="-261" y="310" as="sourcePoint" />
            <mxPoint x="-101" y="310" as="targetPoint" />
          </mxGeometry>
        </mxCell>
        <mxCell id="_GkZHtUso-1NL_-Ys8Fe-19" value="1" style="resizable=0;html=1;align=right;verticalAlign=bottom;container=0;" parent="_GkZHtUso-1NL_-Ys8Fe-18" connectable="0" vertex="1">
          <mxGeometry relative="1" as="geometry">
            <mxPoint as="offset" />
          </mxGeometry>
        </mxCell>
        <mxCell id="_GkZHtUso-1NL_-Ys8Fe-20" value="" style="endArrow=none;html=1;rounded=0;" parent="_GkZHtUso-1NL_-Ys8Fe-2" source="_GkZHtUso-1NL_-Ys8Fe-8" target="_GkZHtUso-1NL_-Ys8Fe-34" edge="1">
          <mxGeometry width="50" height="50" relative="1" as="geometry">
            <mxPoint x="-30" y="470" as="sourcePoint" />
            <mxPoint x="20" y="420" as="targetPoint" />
          </mxGeometry>
        </mxCell>
        <mxCell id="_GkZHtUso-1NL_-Ys8Fe-21" value="turn" style="ellipse;whiteSpace=wrap;html=1;align=center;container=0;" parent="_GkZHtUso-1NL_-Ys8Fe-2" vertex="1">
          <mxGeometry x="540" y="20" width="100" height="40" as="geometry" />
        </mxCell>
        <mxCell id="_GkZHtUso-1NL_-Ys8Fe-22" value="" style="endArrow=none;html=1;rounded=0;" parent="_GkZHtUso-1NL_-Ys8Fe-2" source="_GkZHtUso-1NL_-Ys8Fe-60" target="_GkZHtUso-1NL_-Ys8Fe-21" edge="1">
          <mxGeometry relative="1" as="geometry">
            <mxPoint x="540" y="60" as="sourcePoint" />
            <mxPoint x="627.5" y="175" as="targetPoint" />
          </mxGeometry>
        </mxCell>
        <mxCell id="_GkZHtUso-1NL_-Ys8Fe-23" value="" style="shape=link;html=1;rounded=0;" parent="_GkZHtUso-1NL_-Ys8Fe-2" source="_GkZHtUso-1NL_-Ys8Fe-16" target="_GkZHtUso-1NL_-Ys8Fe-17" edge="1">
          <mxGeometry relative="1" as="geometry">
            <mxPoint x="-10" y="280" as="sourcePoint" />
            <mxPoint x="150" y="280" as="targetPoint" />
          </mxGeometry>
        </mxCell>
        <mxCell id="_GkZHtUso-1NL_-Ys8Fe-24" value="N" style="resizable=0;html=1;align=right;verticalAlign=bottom;container=0;" parent="_GkZHtUso-1NL_-Ys8Fe-23" connectable="0" vertex="1">
          <mxGeometry relative="1" as="geometry">
            <mxPoint x="-25" as="offset" />
          </mxGeometry>
        </mxCell>
        <mxCell id="_GkZHtUso-1NL_-Ys8Fe-25" value="Rules" style="whiteSpace=wrap;html=1;align=center;container=0;" parent="_GkZHtUso-1NL_-Ys8Fe-2" vertex="1">
          <mxGeometry x="440" y="381" width="100" height="40" as="geometry" />
        </mxCell>
        <mxCell id="_GkZHtUso-1NL_-Ys8Fe-26" value="board_size" style="ellipse;whiteSpace=wrap;html=1;align=center;container=0;" parent="_GkZHtUso-1NL_-Ys8Fe-2" vertex="1">
          <mxGeometry x="340" y="420" width="100" height="40" as="geometry" />
        </mxCell>
        <mxCell id="_GkZHtUso-1NL_-Ys8Fe-27" value="" style="endArrow=none;html=1;rounded=0;" parent="_GkZHtUso-1NL_-Ys8Fe-2" source="_GkZHtUso-1NL_-Ys8Fe-25" target="_GkZHtUso-1NL_-Ys8Fe-26" edge="1">
          <mxGeometry relative="1" as="geometry">
            <mxPoint x="717.4999999999998" y="254.92444566718768" as="sourcePoint" />
            <mxPoint x="829.9999999999998" y="204.9999999999999" as="targetPoint" />
          </mxGeometry>
        </mxCell>
        <mxCell id="_GkZHtUso-1NL_-Ys8Fe-28" value="opening_rules" style="ellipse;whiteSpace=wrap;html=1;align=center;container=0;" parent="_GkZHtUso-1NL_-Ys8Fe-2" vertex="1">
          <mxGeometry x="540" y="420" width="100" height="40" as="geometry" />
        </mxCell>
        <mxCell id="_GkZHtUso-1NL_-Ys8Fe-29" value="" style="endArrow=none;html=1;rounded=0;" parent="_GkZHtUso-1NL_-Ys8Fe-2" source="_GkZHtUso-1NL_-Ys8Fe-25" target="_GkZHtUso-1NL_-Ys8Fe-28" edge="1">
          <mxGeometry relative="1" as="geometry">
            <mxPoint x="767.4999999999998" y="255.0000000000001" as="sourcePoint" />
            <mxPoint x="829.9999999999998" y="284.9999999999999" as="targetPoint" />
          </mxGeometry>
        </mxCell>
        <mxCell id="_GkZHtUso-1NL_-Ys8Fe-30" value="variant" style="ellipse;whiteSpace=wrap;html=1;align=center;container=0;" parent="_GkZHtUso-1NL_-Ys8Fe-2" vertex="1">
          <mxGeometry x="340" y="340" width="100" height="40" as="geometry" />
        </mxCell>
        <mxCell id="_GkZHtUso-1NL_-Ys8Fe-31" value="" style="endArrow=none;html=1;rounded=0;" parent="_GkZHtUso-1NL_-Ys8Fe-2" source="_GkZHtUso-1NL_-Ys8Fe-25" target="_GkZHtUso-1NL_-Ys8Fe-30" edge="1">
          <mxGeometry relative="1" as="geometry">
            <mxPoint x="817.4999999999998" y="255.0000000000001" as="sourcePoint" />
            <mxPoint x="899.9999999999998" y="244.9999999999999" as="targetPoint" />
          </mxGeometry>
        </mxCell>
        <mxCell id="_GkZHtUso-1NL_-Ys8Fe-32" value="&lt;span style=&quot;border-bottom: 1px dotted&quot;&gt;token_validation&lt;/span&gt;" style="ellipse;whiteSpace=wrap;html=1;align=center;container=0;" parent="_GkZHtUso-1NL_-Ys8Fe-2" vertex="1">
          <mxGeometry x="100" width="100" height="40" as="geometry" />
        </mxCell>
        <mxCell id="_GkZHtUso-1NL_-Ys8Fe-33" value="" style="endArrow=none;html=1;rounded=0;" parent="_GkZHtUso-1NL_-Ys8Fe-2" source="_GkZHtUso-1NL_-Ys8Fe-17" target="_GkZHtUso-1NL_-Ys8Fe-32" edge="1">
          <mxGeometry relative="1" as="geometry">
            <mxPoint x="-231.00000000000023" y="339.9999999999998" as="sourcePoint" />
            <mxPoint x="-249.99999999999818" y="399.9999999999999" as="targetPoint" />
          </mxGeometry>
        </mxCell>
        <mxCell id="_GkZHtUso-1NL_-Ys8Fe-34" value="User Stats" style="shape=ext;margin=3;double=1;whiteSpace=wrap;html=1;align=center;container=0;" parent="_GkZHtUso-1NL_-Ys8Fe-2" vertex="1">
          <mxGeometry x="100" y="376" width="100" height="40" as="geometry" />
        </mxCell>
        <mxCell id="_GkZHtUso-1NL_-Ys8Fe-35" value="has" style="shape=rhombus;double=1;perimeter=rhombusPerimeter;whiteSpace=wrap;html=1;align=center;container=0;" parent="_GkZHtUso-1NL_-Ys8Fe-2" vertex="1">
          <mxGeometry x="270" y="381" width="80" height="40" as="geometry" />
        </mxCell>
        <mxCell id="_GkZHtUso-1NL_-Ys8Fe-36" value="has" style="shape=rhombus;double=1;perimeter=rhombusPerimeter;whiteSpace=wrap;html=1;align=center;container=0;" parent="_GkZHtUso-1NL_-Ys8Fe-2" vertex="1">
          <mxGeometry x="110" y="300" width="80" height="40" as="geometry" />
        </mxCell>
        <mxCell id="_GkZHtUso-1NL_-Ys8Fe-37" value="" style="endArrow=none;html=1;rounded=0;" parent="_GkZHtUso-1NL_-Ys8Fe-2" source="_GkZHtUso-1NL_-Ys8Fe-36" target="_GkZHtUso-1NL_-Ys8Fe-3" edge="1">
          <mxGeometry relative="1" as="geometry">
            <mxPoint x="150" y="195" as="sourcePoint" />
            <mxPoint x="310" y="195" as="targetPoint" />
          </mxGeometry>
        </mxCell>
        <mxCell id="_GkZHtUso-1NL_-Ys8Fe-38" value="1" style="resizable=0;html=1;align=right;verticalAlign=bottom;container=0;" parent="_GkZHtUso-1NL_-Ys8Fe-37" connectable="0" vertex="1">
          <mxGeometry relative="1" as="geometry">
            <mxPoint x="10" as="offset" />
          </mxGeometry>
        </mxCell>
        <mxCell id="_GkZHtUso-1NL_-Ys8Fe-39" value="" style="shape=link;html=1;rounded=0;" parent="_GkZHtUso-1NL_-Ys8Fe-2" source="_GkZHtUso-1NL_-Ys8Fe-36" target="_GkZHtUso-1NL_-Ys8Fe-34" edge="1">
          <mxGeometry relative="1" as="geometry">
            <mxPoint x="150" y="195" as="sourcePoint" />
            <mxPoint x="310" y="195" as="targetPoint" />
          </mxGeometry>
        </mxCell>
        <mxCell id="_GkZHtUso-1NL_-Ys8Fe-40" value="N" style="resizable=0;html=1;align=right;verticalAlign=bottom;container=0;" parent="_GkZHtUso-1NL_-Ys8Fe-39" connectable="0" vertex="1">
          <mxGeometry relative="1" as="geometry">
            <mxPoint y="20" as="offset" />
          </mxGeometry>
        </mxCell>
        <mxCell id="_GkZHtUso-1NL_-Ys8Fe-41" value="" style="endArrow=none;html=1;rounded=0;" parent="_GkZHtUso-1NL_-Ys8Fe-2" source="_GkZHtUso-1NL_-Ys8Fe-61" target="_GkZHtUso-1NL_-Ys8Fe-25" edge="1">
          <mxGeometry relative="1" as="geometry">
            <mxPoint x="490" y="180" as="sourcePoint" />
            <mxPoint x="310" y="175" as="targetPoint" />
          </mxGeometry>
        </mxCell>
        <mxCell id="_GkZHtUso-1NL_-Ys8Fe-42" value="1" style="resizable=0;html=1;align=right;verticalAlign=bottom;container=0;" parent="_GkZHtUso-1NL_-Ys8Fe-41" connectable="0" vertex="1">
          <mxGeometry relative="1" as="geometry">
            <mxPoint x="-64" y="59" as="offset" />
          </mxGeometry>
        </mxCell>
        <mxCell id="_GkZHtUso-1NL_-Ys8Fe-43" value="" style="endArrow=none;html=1;rounded=0;" parent="_GkZHtUso-1NL_-Ys8Fe-2" source="_GkZHtUso-1NL_-Ys8Fe-35" target="_GkZHtUso-1NL_-Ys8Fe-25" edge="1">
          <mxGeometry relative="1" as="geometry">
            <mxPoint x="700" y="244.9999999999999" as="sourcePoint" />
            <mxPoint x="487.4999999999998" y="345.0000000000001" as="targetPoint" />
          </mxGeometry>
        </mxCell>
        <mxCell id="_GkZHtUso-1NL_-Ys8Fe-44" value="1" style="resizable=0;html=1;align=right;verticalAlign=bottom;container=0;" parent="_GkZHtUso-1NL_-Ys8Fe-43" connectable="0" vertex="1">
          <mxGeometry relative="1" as="geometry">
            <mxPoint x="45" as="offset" />
          </mxGeometry>
        </mxCell>
        <mxCell id="_GkZHtUso-1NL_-Ys8Fe-45" value="" style="shape=link;html=1;rounded=0;" parent="_GkZHtUso-1NL_-Ys8Fe-2" source="_GkZHtUso-1NL_-Ys8Fe-35" target="_GkZHtUso-1NL_-Ys8Fe-34" edge="1">
          <mxGeometry relative="1" as="geometry">
            <mxPoint x="310" y="410" as="sourcePoint" />
            <mxPoint x="170" y="545" as="targetPoint" />
          </mxGeometry>
        </mxCell>
        <mxCell id="_GkZHtUso-1NL_-Ys8Fe-46" value="N" style="resizable=0;html=1;align=right;verticalAlign=bottom;container=0;" parent="_GkZHtUso-1NL_-Ys8Fe-45" connectable="0" vertex="1">
          <mxGeometry relative="1" as="geometry">
            <mxPoint x="-26" y="1" as="offset" />
          </mxGeometry>
        </mxCell>
        <mxCell id="_GkZHtUso-1NL_-Ys8Fe-47" value="id" style="ellipse;whiteSpace=wrap;html=1;align=center;fontStyle=4;container=0;" parent="_GkZHtUso-1NL_-Ys8Fe-2" vertex="1">
          <mxGeometry x="440" y="440" width="100" height="40" as="geometry" />
        </mxCell>
        <mxCell id="_GkZHtUso-1NL_-Ys8Fe-48" value="" style="endArrow=none;html=1;rounded=0;" parent="_GkZHtUso-1NL_-Ys8Fe-2" source="_GkZHtUso-1NL_-Ys8Fe-25" target="_GkZHtUso-1NL_-Ys8Fe-47" edge="1">
          <mxGeometry relative="1" as="geometry">
            <mxPoint x="120" y="165" as="sourcePoint" />
            <mxPoint x="280" y="165" as="targetPoint" />
          </mxGeometry>
        </mxCell>
        <mxCell id="_GkZHtUso-1NL_-Ys8Fe-49" value="match_state" style="ellipse;whiteSpace=wrap;html=1;align=center;container=0;" parent="_GkZHtUso-1NL_-Ys8Fe-2" vertex="1">
          <mxGeometry x="560" y="60" width="100" height="40" as="geometry" />
        </mxCell>
        <mxCell id="_GkZHtUso-1NL_-Ys8Fe-50" value="" style="endArrow=none;html=1;rounded=0;" parent="_GkZHtUso-1NL_-Ys8Fe-2" source="_GkZHtUso-1NL_-Ys8Fe-60" target="_GkZHtUso-1NL_-Ys8Fe-49" edge="1">
          <mxGeometry relative="1" as="geometry">
            <mxPoint x="540" y="80" as="sourcePoint" />
            <mxPoint x="320" y="135" as="targetPoint" />
          </mxGeometry>
        </mxCell>
        <mxCell id="_GkZHtUso-1NL_-Ys8Fe-51" value="" style="endArrow=none;html=1;rounded=0;" parent="_GkZHtUso-1NL_-Ys8Fe-2" source="_GkZHtUso-1NL_-Ys8Fe-3" target="_GkZHtUso-1NL_-Ys8Fe-9" edge="1">
          <mxGeometry relative="1" as="geometry">
            <mxPoint x="-30" y="100" as="sourcePoint" />
            <mxPoint x="130" y="100" as="targetPoint" />
          </mxGeometry>
        </mxCell>
        <mxCell id="_GkZHtUso-1NL_-Ys8Fe-52" value="R1" style="text;html=1;align=center;verticalAlign=middle;resizable=0;points=[];autosize=1;strokeColor=none;fillColor=none;container=0;" parent="_GkZHtUso-1NL_-Ys8Fe-2" vertex="1">
          <mxGeometry x="80" y="200" width="40" height="30" as="geometry" />
        </mxCell>
        <mxCell id="_GkZHtUso-1NL_-Ys8Fe-53" value="R2" style="text;html=1;align=center;verticalAlign=middle;resizable=0;points=[];autosize=1;strokeColor=none;fillColor=none;container=0;" parent="_GkZHtUso-1NL_-Ys8Fe-2" vertex="1">
          <mxGeometry x="180" y="40" width="40" height="30" as="geometry" />
        </mxCell>
        <mxCell id="_GkZHtUso-1NL_-Ys8Fe-54" value="R2" style="text;html=1;align=center;verticalAlign=middle;resizable=0;points=[];autosize=1;strokeColor=none;fillColor=none;container=0;" parent="_GkZHtUso-1NL_-Ys8Fe-2" vertex="1">
          <mxGeometry x="80" y="40" width="40" height="30" as="geometry" />
        </mxCell>
        <mxCell id="_GkZHtUso-1NL_-Ys8Fe-55" value="R3" style="text;html=1;align=center;verticalAlign=middle;resizable=0;points=[];autosize=1;strokeColor=none;fillColor=none;container=0;" parent="_GkZHtUso-1NL_-Ys8Fe-2" vertex="1">
          <mxGeometry x="420" y="40" width="40" height="30" as="geometry" />
        </mxCell>
        <mxCell id="_GkZHtUso-1NL_-Ys8Fe-56" value="R4" style="text;html=1;align=center;verticalAlign=middle;resizable=0;points=[];autosize=1;strokeColor=none;fillColor=none;container=0;" parent="_GkZHtUso-1NL_-Ys8Fe-2" vertex="1">
          <mxGeometry x="530" y="60" width="40" height="30" as="geometry" />
        </mxCell>
        <mxCell id="_GkZHtUso-1NL_-Ys8Fe-57" value="R5" style="text;html=1;align=center;verticalAlign=middle;resizable=0;points=[];autosize=1;strokeColor=none;fillColor=none;container=0;" parent="_GkZHtUso-1NL_-Ys8Fe-2" vertex="1">
          <mxGeometry x="390" y="400" width="40" height="30" as="geometry" />
        </mxCell>
        <mxCell id="_GkZHtUso-1NL_-Ys8Fe-58" value="games_played" style="ellipse;whiteSpace=wrap;html=1;align=center;container=0;" parent="_GkZHtUso-1NL_-Ys8Fe-2" vertex="1">
          <mxGeometry y="340" width="100" height="40" as="geometry" />
        </mxCell>
        <mxCell id="_GkZHtUso-1NL_-Ys8Fe-59" value="" style="endArrow=none;html=1;rounded=0;" parent="_GkZHtUso-1NL_-Ys8Fe-2" source="_GkZHtUso-1NL_-Ys8Fe-34" target="_GkZHtUso-1NL_-Ys8Fe-58" edge="1">
          <mxGeometry width="50" height="50" relative="1" as="geometry">
            <mxPoint x="-30" y="470" as="sourcePoint" />
            <mxPoint x="20" y="420" as="targetPoint" />
          </mxGeometry>
        </mxCell>
        <mxCell id="_GkZHtUso-1NL_-Ys8Fe-60" value="Matches" style="whiteSpace=wrap;html=1;align=center;container=0;" parent="_GkZHtUso-1NL_-Ys8Fe-2" vertex="1">
          <mxGeometry x="440" y="60" width="100" height="40" as="geometry" />
        </mxCell>
        <mxCell id="_GkZHtUso-1NL_-Ys8Fe-61" value="has" style="shape=rhombus;perimeter=rhombusPerimeter;whiteSpace=wrap;html=1;align=center;container=0;" parent="_GkZHtUso-1NL_-Ys8Fe-2" vertex="1">
          <mxGeometry x="620" y="220" width="80" height="40" as="geometry" />
        </mxCell>
        <mxCell id="_GkZHtUso-1NL_-Ys8Fe-62" value="Lobby" style="whiteSpace=wrap;html=1;align=center;container=0;" parent="_GkZHtUso-1NL_-Ys8Fe-2" vertex="1">
          <mxGeometry x="440" y="220" width="100" height="40" as="geometry" />
        </mxCell>
        <mxCell id="_GkZHtUso-1NL_-Ys8Fe-63" value="id" style="ellipse;whiteSpace=wrap;html=1;align=center;fontStyle=4;container=0;" parent="_GkZHtUso-1NL_-Ys8Fe-2" vertex="1">
          <mxGeometry x="340" y="180" width="100" height="40" as="geometry" />
        </mxCell>
        <mxCell id="_GkZHtUso-1NL_-Ys8Fe-64" value="" style="endArrow=none;html=1;rounded=0;" parent="_GkZHtUso-1NL_-Ys8Fe-2" source="_GkZHtUso-1NL_-Ys8Fe-62" target="_GkZHtUso-1NL_-Ys8Fe-63" edge="1">
          <mxGeometry width="50" height="50" relative="1" as="geometry">
            <mxPoint x="100" y="240" as="sourcePoint" />
            <mxPoint x="150" y="190" as="targetPoint" />
          </mxGeometry>
        </mxCell>
        <mxCell id="_GkZHtUso-1NL_-Ys8Fe-65" value="created_at" style="ellipse;whiteSpace=wrap;html=1;align=center;container=0;" parent="_GkZHtUso-1NL_-Ys8Fe-2" vertex="1">
          <mxGeometry x="340" y="260" width="100" height="40" as="geometry" />
        </mxCell>
        <mxCell id="_GkZHtUso-1NL_-Ys8Fe-66" value="" style="endArrow=none;html=1;rounded=0;" parent="_GkZHtUso-1NL_-Ys8Fe-2" source="_GkZHtUso-1NL_-Ys8Fe-65" target="_GkZHtUso-1NL_-Ys8Fe-62" edge="1">
          <mxGeometry width="50" height="50" relative="1" as="geometry">
            <mxPoint x="100" y="240" as="sourcePoint" />
            <mxPoint x="150" y="190" as="targetPoint" />
          </mxGeometry>
        </mxCell>
        <mxCell id="_GkZHtUso-1NL_-Ys8Fe-67" value="belongs" style="shape=rhombus;perimeter=rhombusPerimeter;whiteSpace=wrap;html=1;align=center;container=0;" parent="_GkZHtUso-1NL_-Ys8Fe-2" vertex="1">
          <mxGeometry x="280" y="220" width="80" height="40" as="geometry" />
        </mxCell>
        <mxCell id="_GkZHtUso-1NL_-Ys8Fe-68" value="has" style="shape=rhombus;perimeter=rhombusPerimeter;whiteSpace=wrap;html=1;align=center;container=0;" parent="_GkZHtUso-1NL_-Ys8Fe-2" vertex="1">
          <mxGeometry x="450" y="300" width="80" height="40" as="geometry" />
        </mxCell>
        <mxCell id="_GkZHtUso-1NL_-Ys8Fe-69" value="creates" style="shape=rhombus;perimeter=rhombusPerimeter;whiteSpace=wrap;html=1;align=center;container=0;" parent="_GkZHtUso-1NL_-Ys8Fe-2" vertex="1">
          <mxGeometry x="450" y="140" width="80" height="40" as="geometry" />
        </mxCell>
        <mxCell id="_GkZHtUso-1NL_-Ys8Fe-70" value="" style="shape=link;html=1;rounded=0;" parent="_GkZHtUso-1NL_-Ys8Fe-2" source="_GkZHtUso-1NL_-Ys8Fe-61" target="_GkZHtUso-1NL_-Ys8Fe-60" edge="1">
          <mxGeometry relative="1" as="geometry">
            <mxPoint x="120" y="220" as="sourcePoint" />
            <mxPoint x="280" y="220" as="targetPoint" />
          </mxGeometry>
        </mxCell>
        <mxCell id="_GkZHtUso-1NL_-Ys8Fe-71" value="N" style="resizable=0;html=1;align=right;verticalAlign=bottom;" parent="_GkZHtUso-1NL_-Ys8Fe-70" connectable="0" vertex="1">
          <mxGeometry x="1" relative="1" as="geometry">
            <mxPoint x="27" y="20" as="offset" />
          </mxGeometry>
        </mxCell>
        <mxCell id="_GkZHtUso-1NL_-Ys8Fe-72" value="" style="shape=link;html=1;rounded=0;" parent="_GkZHtUso-1NL_-Ys8Fe-2" source="_GkZHtUso-1NL_-Ys8Fe-67" target="_GkZHtUso-1NL_-Ys8Fe-3" edge="1">
          <mxGeometry relative="1" as="geometry">
            <mxPoint x="120" y="220" as="sourcePoint" />
            <mxPoint x="270" y="180" as="targetPoint" />
          </mxGeometry>
        </mxCell>
        <mxCell id="_GkZHtUso-1NL_-Ys8Fe-73" value="N" style="resizable=0;html=1;align=right;verticalAlign=bottom;" parent="_GkZHtUso-1NL_-Ys8Fe-72" connectable="0" vertex="1">
          <mxGeometry x="1" relative="1" as="geometry">
            <mxPoint x="10" as="offset" />
          </mxGeometry>
        </mxCell>
        <mxCell id="_GkZHtUso-1NL_-Ys8Fe-74" value="" style="endArrow=none;html=1;rounded=0;" parent="_GkZHtUso-1NL_-Ys8Fe-2" source="_GkZHtUso-1NL_-Ys8Fe-67" target="_GkZHtUso-1NL_-Ys8Fe-62" edge="1">
          <mxGeometry relative="1" as="geometry">
            <mxPoint x="120" y="220" as="sourcePoint" />
            <mxPoint x="280" y="220" as="targetPoint" />
          </mxGeometry>
        </mxCell>
        <mxCell id="_GkZHtUso-1NL_-Ys8Fe-75" value="1" style="resizable=0;html=1;align=right;verticalAlign=bottom;" parent="_GkZHtUso-1NL_-Ys8Fe-74" connectable="0" vertex="1">
          <mxGeometry x="1" relative="1" as="geometry" />
        </mxCell>
        <mxCell id="_GkZHtUso-1NL_-Ys8Fe-76" value="" style="endArrow=none;html=1;rounded=0;" parent="_GkZHtUso-1NL_-Ys8Fe-2" source="_GkZHtUso-1NL_-Ys8Fe-68" target="_GkZHtUso-1NL_-Ys8Fe-62" edge="1">
          <mxGeometry relative="1" as="geometry">
            <mxPoint x="120" y="220" as="sourcePoint" />
            <mxPoint x="280" y="220" as="targetPoint" />
          </mxGeometry>
        </mxCell>
        <mxCell id="_GkZHtUso-1NL_-Ys8Fe-77" value="1" style="resizable=0;html=1;align=right;verticalAlign=bottom;" parent="_GkZHtUso-1NL_-Ys8Fe-76" connectable="0" vertex="1">
          <mxGeometry x="1" relative="1" as="geometry">
            <mxPoint y="15" as="offset" />
          </mxGeometry>
        </mxCell>
        <mxCell id="_GkZHtUso-1NL_-Ys8Fe-78" value="" style="endArrow=none;html=1;rounded=0;" parent="_GkZHtUso-1NL_-Ys8Fe-2" source="_GkZHtUso-1NL_-Ys8Fe-68" target="_GkZHtUso-1NL_-Ys8Fe-25" edge="1">
          <mxGeometry relative="1" as="geometry">
            <mxPoint x="120" y="220" as="sourcePoint" />
            <mxPoint x="280" y="220" as="targetPoint" />
          </mxGeometry>
        </mxCell>
        <mxCell id="_GkZHtUso-1NL_-Ys8Fe-79" value="1" style="resizable=0;html=1;align=right;verticalAlign=bottom;" parent="_GkZHtUso-1NL_-Ys8Fe-78" connectable="0" vertex="1">
          <mxGeometry x="1" relative="1" as="geometry" />
        </mxCell>
        <mxCell id="_GkZHtUso-1NL_-Ys8Fe-80" value="" style="endArrow=none;html=1;rounded=0;" parent="_GkZHtUso-1NL_-Ys8Fe-2" source="_GkZHtUso-1NL_-Ys8Fe-69" target="_GkZHtUso-1NL_-Ys8Fe-62" edge="1">
          <mxGeometry relative="1" as="geometry">
            <mxPoint x="120" y="220" as="sourcePoint" />
            <mxPoint x="280" y="220" as="targetPoint" />
          </mxGeometry>
        </mxCell>
        <mxCell id="_GkZHtUso-1NL_-Ys8Fe-81" value="1" style="resizable=0;html=1;align=right;verticalAlign=bottom;" parent="_GkZHtUso-1NL_-Ys8Fe-80" connectable="0" vertex="1">
          <mxGeometry x="1" relative="1" as="geometry" />
        </mxCell>
        <mxCell id="_GkZHtUso-1NL_-Ys8Fe-82" value="" style="shape=link;html=1;rounded=0;" parent="_GkZHtUso-1NL_-Ys8Fe-2" source="_GkZHtUso-1NL_-Ys8Fe-69" target="_GkZHtUso-1NL_-Ys8Fe-60" edge="1">
          <mxGeometry relative="1" as="geometry">
            <mxPoint x="120" y="220" as="sourcePoint" />
            <mxPoint x="280" y="220" as="targetPoint" />
          </mxGeometry>
        </mxCell>
        <mxCell id="_GkZHtUso-1NL_-Ys8Fe-83" value="N" style="resizable=0;html=1;align=right;verticalAlign=bottom;" parent="_GkZHtUso-1NL_-Ys8Fe-82" connectable="0" vertex="1">
          <mxGeometry x="1" relative="1" as="geometry">
            <mxPoint y="20" as="offset" />
          </mxGeometry>
        </mxCell>
        <mxCell id="_GkZHtUso-1NL_-Ys8Fe-84" value="moves" style="ellipse;whiteSpace=wrap;html=1;align=center;" parent="_GkZHtUso-1NL_-Ys8Fe-2" vertex="1">
          <mxGeometry x="320" y="60" width="100" height="40" as="geometry" />
        </mxCell>
        <mxCell id="_GkZHtUso-1NL_-Ys8Fe-85" value="id" style="ellipse;whiteSpace=wrap;html=1;align=center;fontStyle=4;" parent="_GkZHtUso-1NL_-Ys8Fe-2" vertex="1">
          <mxGeometry x="440" width="100" height="40" as="geometry" />
        </mxCell>
        <mxCell id="_GkZHtUso-1NL_-Ys8Fe-86" value="plays" style="shape=rhombus;perimeter=rhombusPerimeter;whiteSpace=wrap;html=1;align=center;" parent="_GkZHtUso-1NL_-Ys8Fe-2" vertex="1">
          <mxGeometry x="280" y="140" width="80" height="40" as="geometry" />
        </mxCell>
        <mxCell id="_GkZHtUso-1NL_-Ys8Fe-87" value="" style="endArrow=none;html=1;rounded=0;" parent="_GkZHtUso-1NL_-Ys8Fe-2" source="_GkZHtUso-1NL_-Ys8Fe-85" target="_GkZHtUso-1NL_-Ys8Fe-60" edge="1">
          <mxGeometry relative="1" as="geometry">
            <mxPoint x="490" y="30" as="sourcePoint" />
            <mxPoint x="490" y="60" as="targetPoint" />
          </mxGeometry>
        </mxCell>
        <mxCell id="_GkZHtUso-1NL_-Ys8Fe-88" value="" style="endArrow=none;html=1;rounded=0;" parent="_GkZHtUso-1NL_-Ys8Fe-2" source="_GkZHtUso-1NL_-Ys8Fe-84" target="_GkZHtUso-1NL_-Ys8Fe-60" edge="1">
          <mxGeometry relative="1" as="geometry">
            <mxPoint x="170" y="200" as="sourcePoint" />
            <mxPoint x="330" y="200" as="targetPoint" />
          </mxGeometry>
        </mxCell>
        <mxCell id="_GkZHtUso-1NL_-Ys8Fe-89" value="" style="endArrow=none;html=1;rounded=0;" parent="_GkZHtUso-1NL_-Ys8Fe-2" source="_GkZHtUso-1NL_-Ys8Fe-86" target="_GkZHtUso-1NL_-Ys8Fe-60" edge="1">
          <mxGeometry relative="1" as="geometry">
            <mxPoint x="170" y="250" as="sourcePoint" />
            <mxPoint x="330" y="250" as="targetPoint" />
          </mxGeometry>
        </mxCell>
        <mxCell id="_GkZHtUso-1NL_-Ys8Fe-90" value="N" style="resizable=0;html=1;align=right;verticalAlign=bottom;" parent="_GkZHtUso-1NL_-Ys8Fe-89" connectable="0" vertex="1">
          <mxGeometry x="1" relative="1" as="geometry">
            <mxPoint x="-7" y="5" as="offset" />
          </mxGeometry>
        </mxCell>
        <mxCell id="_GkZHtUso-1NL_-Ys8Fe-91" value="" style="endArrow=none;html=1;rounded=0;" parent="_GkZHtUso-1NL_-Ys8Fe-2" source="_GkZHtUso-1NL_-Ys8Fe-3" target="_GkZHtUso-1NL_-Ys8Fe-86" edge="1">
          <mxGeometry relative="1" as="geometry">
            <mxPoint x="170" y="250" as="sourcePoint" />
            <mxPoint x="330" y="250" as="targetPoint" />
          </mxGeometry>
        </mxCell>
        <mxCell id="_GkZHtUso-1NL_-Ys8Fe-92" value="2" style="text;html=1;align=center;verticalAlign=middle;resizable=0;points=[];autosize=1;strokeColor=none;fillColor=none;" parent="_GkZHtUso-1NL_-Ys8Fe-2" vertex="1">
          <mxGeometry x="170" y="200" width="30" height="30" as="geometry" />
        </mxCell>
      </root>
    </mxGraphModel>
  </diagram>
</mxfile>
